<?xml version="1.0" encoding="UTF-8"?>
<svg version="1.1" xmlns="http://www.w3.org/2000/svg" width="192" height="49">
<path d="M0 0 C1.77020508 -0.03577148 1.77020508 -0.03577148 3.57617188 -0.07226562 C12.04776565 -0.05788261 12.04776565 -0.05788261 16.359375 2.578125 C18.6124131 6.5261092 18.63373983 9.42069438 18.375 13.875 C18.35244141 14.61556641 18.32988281 15.35613281 18.30664062 16.11914062 C18.2480815 17.93447357 18.15840886 19.74875681 18.0625 21.5625 C14.46310205 21.03124558 13.34344172 20.85862776 10.75 18.125 C9.0625 15.5625 9.0625 15.5625 9.0625 13.5625 C6.230332 13.22801741 6.230332 13.22801741 3.0625 13.5625 C0.68530307 15.43751931 0.68530307 15.43751931 -0.9375 17.5625 C-3.2475 16.9025 -5.5575 16.2425 -7.9375 15.5625 C-11.8040284 18.784607 -12.81809018 21.71172412 -13.9375 26.5625 C-12.9475 26.2325 -11.9575 25.9025 -10.9375 25.5625 C-9.71229736 22.55402582 -9.71229736 22.55402582 -8.9375 19.5625 C-5.27083333 19.5625 -1.60416667 19.5625 2.0625 19.5625 C2.0625 18.9025 2.0625 18.2425 2.0625 17.5625 C2.7225 17.5625 3.3825 17.5625 4.0625 17.5625 C4.0625 16.9025 4.0625 16.2425 4.0625 15.5625 C6.90293689 16.67838592 8.07160039 17.57463385 9.9375 20.0625 C12.44528915 23.01284017 14.36145144 23.63723786 18.0625 24.5625 C18.14371924 26.16582791 18.20179134 27.77034026 18.25 29.375 C18.30220703 30.71498047 18.30220703 30.71498047 18.35546875 32.08203125 C18.0625 34.5625 18.0625 34.5625 16.97265625 36.19921875 C14.09271498 38.25463696 11.70769518 37.89978095 8.20703125 37.85546875 C7.54539474 37.85122391 6.88375824 37.84697906 6.20207214 37.84260559 C4.0926309 37.82583693 1.98415154 37.78819099 -0.125 37.75 C-1.55662681 37.73495068 -2.98826862 37.7212627 -4.41992188 37.70898438 C-7.92609288 37.6759403 -11.43170254 37.62417167 -14.9375 37.5625 C-14.9375 36.9025 -14.9375 36.2425 -14.9375 35.5625 C-15.5975 35.5625 -16.2575 35.5625 -16.9375 35.5625 C-18.12727906 33.18294187 -18.06665548 31.70811973 -18.0703125 29.0546875 C-18.07160156 28.14976563 -18.07289062 27.24484375 -18.07421875 26.3125 C-18.07035156 25.36375 -18.06648438 24.415 -18.0625 23.4375 C-18.06636719 22.51195313 -18.07023437 21.58640625 -18.07421875 20.6328125 C-18.05357645 6.0180612 -18.05357645 6.0180612 -15.26000977 2.37475586 C-10.8722869 -1.04898711 -5.35104836 -0.04951977 0 0 Z " fill="#4255E6" transform="translate(17.9375,11.4375)"/>
<path d="M0 0 C3.3 0 6.6 0 10 0 C12.47242342 4.54812561 13.94735922 8.89513507 15.1875 13.875 C15.36474609 14.56335937 15.54199219 15.25171875 15.72460938 15.9609375 C16.15579871 17.63907979 16.5787638 19.31933172 17 21 C17.21934204 20.15236084 17.21934204 20.15236084 17.44311523 19.28759766 C18.10559865 16.73279251 18.77150654 14.17889227 19.4375 11.625 C19.66759766 10.73554688 19.89769531 9.84609375 20.13476562 8.9296875 C20.46831055 7.65351563 20.46831055 7.65351563 20.80859375 6.3515625 C21.11494751 5.17327881 21.11494751 5.17327881 21.42749023 3.97119141 C22 2 22 2 23 0 C24.62418745 -0.08090971 26.24951745 -0.13914995 27.875 -0.1875 C28.77992187 -0.22230469 29.68484375 -0.25710937 30.6171875 -0.29296875 C31.79667969 -0.14794922 31.79667969 -0.14794922 33 0 C35.4286032 3.6429048 35.25761901 5.41303841 35.265625 9.75 C35.26849518 10.73178223 35.26849518 10.73178223 35.27142334 11.73339844 C35.27278245 13.11523829 35.26910513 14.49709103 35.26074219 15.87890625 C35.25003809 17.9924796 35.26064601 20.10520305 35.2734375 22.21875 C35.27211586 23.56250187 35.26955336 24.90625322 35.265625 26.25 C35.26336914 27.47203125 35.26111328 28.6940625 35.25878906 29.953125 C35 33 35 33 33 36 C30.4375 36.25 30.4375 36.25 28 36 C26.48578999 34.48578999 26.78690144 33.07527232 26.68359375 30.96484375 C26.64169922 30.15595703 26.59980469 29.34707031 26.55664062 28.51367188 C26.51732422 27.66353516 26.47800781 26.81339844 26.4375 25.9375 C26.39431641 25.08349609 26.35113281 24.22949219 26.30664062 23.34960938 C26.20023298 21.23327963 26.09958269 19.11666187 26 17 C25.85377197 17.54003662 25.70754395 18.08007324 25.55688477 18.63647461 C24.89556445 21.07110922 24.22910312 23.50430679 23.5625 25.9375 C23.33240234 26.78763672 23.10230469 27.63777344 22.86523438 28.51367188 C22.53168945 29.72700195 22.53168945 29.72700195 22.19140625 30.96484375 C21.88505249 32.08814087 21.88505249 32.08814087 21.57250977 33.23413086 C21 35 21 35 20 36 C17.0625 36.1875 17.0625 36.1875 14 36 C11.23559788 33.23559788 10.7926617 30.0592418 9.875 26.375 C9.69324219 25.66859375 9.51148438 24.9621875 9.32421875 24.234375 C8.8766359 22.49115757 8.43750538 20.74577389 8 19 C7.93941406 20.05960938 7.87882812 21.11921875 7.81640625 22.2109375 C7.73199873 23.59897221 7.64735083 24.98699232 7.5625 26.375 C7.50352539 27.42300781 7.50352539 27.42300781 7.44335938 28.4921875 C7.11328125 33.7734375 7.11328125 33.7734375 6 36 C4.02 36 2.04 36 0 36 C-1.50302481 32.99395038 -1.12994577 30.22334028 -1.1328125 26.875 C-1.13376923 26.1722998 -1.13472595 25.46959961 -1.13571167 24.74560547 C-1.13639238 23.25943919 -1.1345457 21.77326994 -1.13037109 20.28710938 C-1.12502125 18.00904681 -1.13031972 15.73118141 -1.13671875 13.453125 C-1.13605795 12.01041623 -1.13477675 10.56770758 -1.1328125 9.125 C-1.13168457 7.80757812 -1.13055664 6.49015625 -1.12939453 5.1328125 C-1 2 -1 2 0 0 Z " fill="#181E28" transform="translate(50,8)"/>
<path d="M0 0 C1.13308594 -0.02578125 2.26617187 -0.0515625 3.43359375 -0.078125 C6.84827259 0.27996866 8.17305897 0.83231499 10.5625 3.25 C11.95398584 7.42445752 11.96878699 11.50073987 12.1875 15.875 C12.26484375 17.20144531 12.26484375 17.20144531 12.34375 18.5546875 C12.38757813 19.39515625 12.43140625 20.235625 12.4765625 21.1015625 C12.5173291 21.87322754 12.5580957 22.64489258 12.60009766 23.43994141 C12.5625 25.25 12.5625 25.25 11.5625 26.25 C9.89632885 26.29063832 8.22861905 26.292721 6.5625 26.25 C6.2325 25.26 5.9025 24.27 5.5625 23.25 C4.758125 23.745 3.95375 24.24 3.125 24.75 C-1.23583759 26.58614214 -4.76961179 27.02945761 -9.4375 26.25 C-12 24.6875 -12 24.6875 -13.4375 22.25 C-14.16397185 16.33444349 -14.16397185 16.33444349 -12.359375 13.640625 C-9.51730636 11.58416883 -6.67248365 11.22187758 -3.25 10.5625 C-1.34154297 10.18544922 -1.34154297 10.18544922 0.60546875 9.80078125 C1.58128906 9.61902344 2.55710937 9.43726563 3.5625 9.25 C3.5625 8.26 3.5625 7.27 3.5625 6.25 C-1.41201719 5.96300862 -3.59166301 6.1733304 -7.4375 9.25 C-10.1875 9.4375 -10.1875 9.4375 -12.4375 9.25 C-12.80335366 4.73780488 -12.80335366 4.73780488 -11.125 2.5 C-7.64406049 -0.07847371 -4.18176883 0.05695939 0 0 Z M-5.4375 16.25 C-5.4375 17.57 -5.4375 18.89 -5.4375 20.25 C-2.38955066 21.18131785 -1.01699326 21.54757762 1.875 20.0625 C4.01677902 18.17481262 4.01677902 18.17481262 3.5625 14.25 C-0.23307881 14.25 -2.06652617 14.75178941 -5.4375 16.25 Z " fill="#181E28" transform="translate(103.4375,17.75)"/>
<path d="M0 0 C2.5625 0.1875 2.5625 0.1875 4.5625 2.1875 C5.5525 1.5275 6.5425 0.8675 7.5625 0.1875 C14.25581881 -0.46024053 14.25581881 -0.46024053 18.296875 1.54296875 C21.81412917 5.64845336 21.13999684 9.6554694 20.9375 14.875 C20.91623047 16.33776367 20.91623047 16.33776367 20.89453125 17.83007812 C20.74473614 25.00526386 20.74473614 25.00526386 19.5625 26.1875 C17.0625 26.3125 17.0625 26.3125 14.5625 26.1875 C13.01299732 24.63799732 13.34594807 23.08759406 13.24609375 20.93359375 C13.20419922 20.07958984 13.16230469 19.22558594 13.11914062 18.34570312 C13.07982422 17.44787109 13.04050781 16.55003906 13 15.625 C12.95681641 14.72330078 12.91363281 13.82160156 12.86914062 12.89257812 C12.76271858 10.65771515 12.66070012 8.42273692 12.5625 6.1875 C9.62158413 6.37165432 9.62158413 6.37165432 6.5625 7.1875 C3.90732694 10.38454511 4.19519095 14.36735603 4 18.375 C3.66119848 25.08880152 3.66119848 25.08880152 2.5625 26.1875 C0.0625 26.3125 0.0625 26.3125 -2.4375 26.1875 C-4.15317792 24.47182208 -3.56765825 22.21377265 -3.5703125 19.875 C-3.57160156 18.79992187 -3.57289062 17.72484375 -3.57421875 16.6171875 C-3.56841797 14.91949219 -3.56841797 14.91949219 -3.5625 13.1875 C-3.56636719 12.05570313 -3.57023437 10.92390625 -3.57421875 9.7578125 C-3.57292969 8.68273437 -3.57164063 7.60765625 -3.5703125 6.5 C-3.56918457 5.50613281 -3.56805664 4.51226562 -3.56689453 3.48828125 C-3.38755804 0.29947536 -3.18994567 0.24538044 0 0 Z " fill="#181E28" transform="translate(123.4375,17.8125)"/>
<path d="M0 0 C2.5 0.125 2.5 0.125 3.5 1.125 C3.73727795 4.24727655 3.89553656 7.36180294 4.01757812 10.49023438 C4.20755299 14.15710765 4.51072034 16.99208588 6.5 20.125 C8.97266765 19.78055119 8.97266765 19.78055119 11.5 19.125 C13.34107946 15.44284107 12.915029 10.88308226 13.10546875 6.80273438 C13.39926145 1.22573855 13.39926145 1.22573855 14.5 0.125 C17 0 17 0 19.5 0.125 C21.21567792 1.84067792 20.63015825 4.09872735 20.6328125 6.4375 C20.63474609 8.05011719 20.63474609 8.05011719 20.63671875 9.6953125 C20.63285156 10.82710937 20.62898438 11.95890625 20.625 13.125 C20.63080078 14.82269531 20.63080078 14.82269531 20.63671875 16.5546875 C20.63542969 17.62976563 20.63414062 18.70484375 20.6328125 19.8125 C20.63168457 20.80636719 20.63055664 21.80023438 20.62939453 22.82421875 C20.5 25.125 20.5 25.125 19.5 26.125 C17.83382885 26.16563832 16.16611905 26.167721 14.5 26.125 C14.5 25.465 14.5 24.805 14.5 24.125 C13.93152344 24.44597656 13.36304688 24.76695313 12.77734375 25.09765625 C10.36892638 26.18412927 8.68994977 26.48508814 6.0625 26.5625 C4.95068359 26.62244141 4.95068359 26.62244141 3.81640625 26.68359375 C0.06569264 25.7791215 -1.25928124 24.24167164 -3.5 21.125 C-4.12271417 17.68508697 -4.01847129 14.35788935 -3.875 10.875 C-3.86082031 9.95203125 -3.84664062 9.0290625 -3.83203125 8.078125 C-3.65787173 0.18289359 -3.65787173 0.18289359 0 0 Z " fill="#181E28" transform="translate(171.5,17.875)"/>
<path d="M0 0 C2.375 -0.1875 2.375 -0.1875 5 0 C7.4294516 3.6441774 7.16179575 5.71241272 7 10 C8.65 10.33 10.3 10.66 12 11 C11.67 12.32 11.34 13.64 11 15 C9.68 15 8.36 15 7 15 C7.33 19.95 7.66 24.9 8 30 C9.65 30 11.3 30 13 30 C13.33 31.65 13.66 33.3 14 35 C11.5558206 36.2220897 9.78970128 36.23641068 7.0625 36.3125 C5.74958984 36.36857422 5.74958984 36.36857422 4.41015625 36.42578125 C2 36 2 36 0.1953125 34.52734375 C-1.57700601 30.77999056 -1.31964626 27.33636889 -1.1875 23.25 C-1.17396484 22.45722656 -1.16042969 21.66445313 -1.14648438 20.84765625 C-1.11125223 18.89814436 -1.05744821 16.94898374 -1 15 C-2.32 14.67 -3.64 14.34 -5 14 C-4.67 12.68 -4.34 11.36 -4 10 C-3.01 10 -2.02 10 -1 10 C-1.020625 8.72125 -1.04125 7.4425 -1.0625 6.125 C-1.125 2.25 -1.125 2.25 0 0 Z " fill="#181E28" transform="translate(152,8)"/>
<path d="M0 0 C2.9375 1.625 2.9375 1.625 5 4 C5.8125 7.25 5.8125 7.25 6 10 C4.68 10 3.36 10 2 10 C2 8.68 2 7.36 2 6 C1.34 6 0.68 6 0 6 C0 5.34 0 4.68 0 4 C-4.455 4.495 -4.455 4.495 -9 5 C-9.33 6.98 -9.66 8.96 -10 11 C-11.32 10.67 -12.64 10.34 -14 10 C-12.56858847 3.67793241 -12.56858847 3.67793241 -10.375 1.0625 C-6.90649751 -0.48919848 -3.68883925 -0.65140217 0 0 Z " fill="#171D25" transform="translate(22,0)"/>
<path d="M0 0 C0.6875 1.8125 0.6875 1.8125 1 4 C-0.4375 5.75 -0.4375 5.75 -2 7 C-1.34 4.69 -0.68 2.38 0 0 Z " fill="#3A4EE5" transform="translate(39,41)"/>
<path d="M0 0 C0.66 0 1.32 0 2 0 C1.67 1.32 1.34 2.64 1 4 C0.67 2.68 0.34 1.36 0 0 Z " fill="#3A4EE5" transform="translate(37,6)"/>
<path d="" fill="#3A4EE5" transform="translate(0,0)"/>
<path d="" fill="#3A4EE5" transform="translate(0,0)"/>
<path d="" fill="#3A4EE5" transform="translate(0,0)"/>
</svg>
